<svg version="1.1" id="final_svg" xmlns="http://www.w3.org/2000/svg" xmlns:xlink="http://www.w3.org/1999/xlink" x="0px" y="0px" viewBox="1375.3807373046875 712.857177734375 578.1900634765625 498.561767578125" style="enable-background:new 0 0 315 275.5388;" xml:space="preserve">
      <style type="text/css">.st0{fill:#231F20;}</style>
    <g id="color_index_0" fill="#231f20" transform="translate(1488.86, 712.8571572000001) scale(1.112)" opacity="1">
              <path d="M251.6835,88.6777c-4.4858-15.6796-19.008-26.6305-35.3143-26.6305H98.6308		c-16.3132,0-30.8292,10.951-35.3,26.6305l-8.2146,28.7067c-3.0713,10.7872-0.9665,22.0976,5.7742,31.0325		c6.7502,8.9457,17.0491,14.0768,28.2558,14.0768h19.5973c10.9516,0,21.1025-4.9455,27.848-13.5673		c5.1804-6.2449,11.3316-17.5297,20.9156-16.7163c9.5501-0.8289,15.7461,10.4969,20.9,16.7149		c6.7468,8.6231,16.8977,13.5686,27.8493,13.5686h19.6116c11.1978,0,21.4913-5.131,28.2415-14.0768		c6.7516-8.9485,8.8557-20.2595,5.7735-31.0338L251.6835,88.6777z M225.8681,151.319h-19.6116		c-7.4909,0-14.4369-3.3843-19.0571-9.2847c-7.0968-9.7969-16.146-21.8308-29.6922-20.9989		c-13.5679-0.8402-22.5993,11.2193-29.7072,20.9989c-4.6195,5.9004-11.5655,9.2847-19.0564,9.2847H89.1463		c-7.6621,0-14.7097-3.5091-19.3333-9.6257c-4.61-6.1282-6.0498-13.8694-3.9504-21.2376l8.2139-28.7053		c3.1108-10.9093,13.2078-18.5285,24.5544-18.5285h117.7384c11.3411,0,21.4442,7.6198,24.5687,18.5292l8.1989,28.7033		c2.1,7.3695,0.6602,15.1108-3.9477,21.2362C240.5634,147.8098,233.5213,151.319,225.8681,151.319z"></path>
        <path d="M104.7609,85.2797c-9.7095,0-17.609,7.8995-17.609,17.6096c0,9.7037,7.8995,17.5978,17.609,17.5978		c9.7037,0,17.5983-7.8941,17.5983-17.5978C122.3593,93.1792,114.4646,85.2797,104.7609,85.2797z M104.7609,97.6843		c-2.0605,0-3.7368-1.6715-3.7368-3.7261c0-2.0541,1.6763-3.7255,3.7368-3.7255c2.0541,0,3.7256,1.6715,3.7256,3.7255		C108.4865,96.0128,106.815,97.6843,104.7609,97.6843z M99.556,102.8893c0,2.0541-1.6715,3.7255-3.7255,3.7255		s-3.7256-1.6715-3.7256-3.7255c0-2.0546,1.6715-3.7261,3.7256-3.7261S99.556,100.8347,99.556,102.8893z M104.7609,108.083		c2.0541,0,3.7256,1.6715,3.7256,3.7256c0,2.0605-1.6715,3.7368-3.7256,3.7368c-2.0605,0-3.7368-1.6763-3.7368-3.7368		C101.0242,109.7545,102.7005,108.083,104.7609,108.083z M109.9552,102.8893c0-2.0546,1.6715-3.7261,3.7255-3.7261		s3.7256,1.6715,3.7256,3.7261c0,2.0541-1.6715,3.7255-3.7256,3.7255S109.9552,104.9433,109.9552,102.8893z"></path>
        <path d="M211.8951,97.6528c-3.3905,0-6.1493-2.7582-6.1493-6.1487c0-3.3905,2.7589-6.1493,6.1493-6.1493		s6.1493,2.7589,6.1493,6.1493C218.0445,94.8946,215.2856,97.6528,211.8951,97.6528z"></path>
        <path d="M211.8951,120.412c-3.3905,0-6.1493-2.7582-6.1493-6.1487s2.7589-6.1493,6.1493-6.1493		s6.1493,2.7589,6.1493,6.1493S215.2856,120.412,211.8951,120.412z"></path>
        <path d="M223.2744,109.0327c-3.3905,0-6.1487-2.7589-6.1487-6.1493c0-3.3904,2.7582-6.1487,6.1487-6.1487		s6.1493,2.7582,6.1493,6.1487C229.4238,106.2738,226.6649,109.0327,223.2744,109.0327z"></path>
        <path d="M200.5152,109.0327c-3.3905,0-6.1487-2.7589-6.1487-6.1493c0-3.3904,2.7582-6.1487,6.1487-6.1487		s6.1493,2.7582,6.1493,6.1487C206.6645,106.2738,203.9056,109.0327,200.5152,109.0327z"></path>
        <path d="M185.2699,197.2446c-2.0443-1.3029-4.9132-1.0634-6.6691,0.607c-1.7215,1.5919-3.9313,2.4683-6.2591,2.4683		c-5.0915,0-9.2336-4.1482-9.2336-9.2472v-3.7267c1.8788-0.8315,9.8368-9.717,11.4638-11.2094		c3.1633-3.252,4.0316-7.8674,2.2671-12.0463c-1.7665-4.1816-5.6842-6.7789-10.2246-6.7789h-18.2148		c-4.5411,0-8.4587,2.5979-10.2246,6.7795c-1.7651,4.1782-0.8962,8.7943,2.2664,12.045		c1.6837,1.5485,9.5341,10.3279,11.4638,11.2101v3.7267c0,5.099-4.1421,9.2472-9.2697,9.2472c-2.291,0-4.5008-0.8764-6.2216-2.4683		c-1.7567-1.6704-4.6248-1.9096-6.6697-0.6077c-3.1228,1.8106-3.5547,6.5378-0.8273,8.8966		c3.7738,3.4525,8.6177,5.3541,13.7555,5.3541c5.6637,0,10.9789-2.319,14.8236-6.4167c3.8467,4.0977,9.1688,6.4167,14.8366,6.4167		l0.1234,0.0007c5.0226,0,9.8665-1.9022,13.6409-5.3548C188.8246,203.782,188.3927,199.054,185.2699,197.2446z"></path>
        <path d="M58.9868,39.3227c4.0742,0.1398,7.2329-4.3424,5.1604-8.0263c-4.2635-8.1054-12.5231-13.141-21.5554-13.141		c-13.4711,0-24.4302,11.1344-24.4302,24.8211c0,10.8664,7.1622,20.6422,17.4174,23.7734		c6.7935,2.1625,9.9161-8.7506,3.1381-10.7231c-5.5232-1.7392-9.3809-7.1056-9.3809-13.0503		c0-7.5243,5.9461-13.6464,13.2556-13.6464c4.8255,0,9.2731,2.7043,11.6084,7.0578C55.1715,38.198,57.0055,39.3227,58.9868,39.3227z		"></path>
        <path d="M272.4123,18.1554c-9.0323,0-17.2926,5.0356-21.5568,13.1424c-3.4428,6.2991,6.7473,11.4235,9.9483,5.0908		c2.3347-4.3542,6.783-7.0585,11.6084-7.0585c7.3095,0,13.2563,6.1221,13.2563,13.6464c0,5.9454-3.8583,11.3117-9.3823,13.0496		c-6.7808,1.9765-3.6534,12.8837,3.1374,10.7245c10.2566-3.1313,17.4195-12.9077,17.4195-23.7741		C296.8432,29.2898,285.8834,18.1554,272.4123,18.1554z"></path>
        <path d="M315,42.9806C315,19.2808,295.8945,0,272.4102,0c-16.1836,0-30.9772,9.314-38.1476,23.8696		C211.6651,8.2473,185.1587,0,157.4928,0c-27.657,0-54.158,8.2473-76.7555,23.8696C73.567,9.314,58.7734,0,42.5897,0		C19.1055,0,0,19.2808,0,42.9806c0,19.3538,13.2113,36.5529,31.6436,41.5258c-7.0019,16.8527-10.5513,34.7633-10.5513,53.2631		c0,75.9664,61.1892,137.7694,136.4005,137.7694c75.2195,0,136.4148-61.803,136.4148-137.7694		c0-18.5299-3.5487-36.4404-10.5506-53.2638C301.7894,79.5328,315,62.3343,315,42.9806z M158.1012,11.1747		c27.3269,0.2483,53.7207,9.209,75.3328,25.9103c3.2587,3.5388,8.2609,1.8647,8.7943-2.9028		c3.8242-13.5461,16.2354-23.0075,30.1819-23.0075c17.3226,0,31.4151,14.2677,31.4151,31.8059		c0,16.5042-12.7059,30.4275-28.9236,31.6981c-4.7222-0.418-7.3493,4.093-4.6038,7.9731		c8.2514,17.2626,12.4351,35.8068,12.4351,55.1176c0,69.8048-56.1823,126.5947-125.2402,126.5947		c-69.0498,0-125.2259-56.7899-125.2259-126.5947c0-19.321,4.1885-37.8645,12.4501-55.1189		c2.709-3.8834,0.1157-8.3801-4.6025-7.9718c-16.2279-1.27-28.9399-15.1933-28.9399-31.6981		c0-17.5382,14.0925-31.8059,31.4151-31.8059c13.9595,0,26.3707,9.4607,30.1847,23.017c0.3283,3.6346,4.3025,6.3988,7.4896,3.9156		C102.7436,20.7397,130.7252,11.1747,158.1012,11.1747z"></path>
          </g>
    <g fill="#231f20" id="text_group" transform="translate(1372.990701, 1043.2563028)" opacity="1.0">
              <path d="M52.48 61.97L52.48 61.97Q52.48 67.90 49.56 70.73Q46.64 73.55 43.10 73.55L43.10 73.55L20.40 73.55Q20.40 76.24 23.56 78.06Q26.72 79.88 29.88 79.88L29.88 79.88Q35.44 79.88 38.60 78.73L38.60 78.73L39.65 78.34Q41.95 77.29 43.48 77.29L43.48 77.29Q46.55 77.29 48.75 81.60L48.75 81.60Q49.99 84.19 49.99 86.01L49.99 86.01Q49.99 94.53 29.59 94.53L29.59 94.53Q22.51 94.53 17.00 92.09Q11.49 89.64 8.43 85.62L8.43 85.62Q2.39 77.86 2.39 68.29L2.39 68.29Q2.39 56.22 10.20 48.99Q18.01 41.76 29.69 41.76L29.69 41.76Q43.00 41.76 49.23 51.14L49.23 51.14Q52.48 56.12 52.48 61.97ZM20.21 64.84L32.28 64.84Q35.92 64.84 35.92 61.77L35.92 61.77Q35.92 59.57 34.24 58.23Q32.56 56.89 29.45 56.89Q26.34 56.89 23.27 59.43Q20.21 61.97 20.21 64.84L20.21 64.84ZM147.59 23.46L147.59 23.46Q154.00 25.76 154.00 29.59L154.00 29.59Q154.00 30.84 152.86 34.29L152.86 34.29L134.47 87.44Q134.28 88.11 133.80 89.07Q133.32 90.03 131.26 91.61Q129.20 93.19 126.37 93.19Q123.55 93.19 121.49 91.61Q119.43 90.03 118.76 88.50L118.76 88.50L107.55 55.45Q96.92 86.87 96.73 87.44Q96.54 88.02 95.87 89.07Q95.20 90.12 94.34 90.99L94.34 90.99Q92.13 93.19 89.07 93.19Q86.01 93.19 84.04 91.75Q82.08 90.31 81.41 88.88L81.41 88.88L80.74 87.44L62.25 34.29Q61.20 31.13 61.20 29.59L61.20 29.59Q61.20 25.76 67.62 23.56L67.62 23.56Q70.39 22.60 72.64 22.60Q74.90 22.60 76.09 24.14Q77.29 25.67 78.25 28.83L78.25 28.83L88.78 60.82L99.22 29.31Q100.56 25.28 104.11 23.75L104.11 23.75Q105.64 23.08 108.08 23.08Q110.52 23.08 112.63 24.66Q114.74 26.24 115.31 27.77L115.31 27.77L126.33 61.01L136.86 28.83Q137.63 26.63 138.11 25.57Q138.58 24.52 139.88 23.51Q141.17 22.51 143.09 22.51Q145.00 22.51 147.59 23.46ZM206.11 61.97L206.11 61.97Q206.11 67.90 203.18 70.73Q200.26 73.55 196.72 73.55L196.72 73.55L174.02 73.55Q174.02 76.24 177.18 78.06Q180.34 79.88 183.50 79.88L183.50 79.88Q189.06 79.88 192.22 78.73L192.22 78.73L193.27 78.34Q195.57 77.29 197.10 77.29L197.10 77.29Q200.17 77.29 202.37 81.60L202.37 81.60Q203.62 84.19 203.62 86.01L203.62 86.01Q203.62 94.53 183.22 94.53L183.22 94.53Q176.13 94.53 170.62 92.09Q165.11 89.64 162.05 85.62L162.05 85.62Q156.02 77.86 156.02 68.29L156.02 68.29Q156.02 56.22 163.82 48.99Q171.63 41.76 183.31 41.76L183.31 41.76Q196.62 41.76 202.85 51.14L202.85 51.14Q206.11 56.12 206.11 61.97ZM173.83 64.84L185.90 64.84Q189.54 64.84 189.54 61.77L189.54 61.77Q189.54 59.57 187.86 58.23Q186.18 56.89 183.07 56.89Q179.96 56.89 176.89 59.43Q173.83 61.97 173.83 64.84L173.83 64.84ZM244.89 42.91L244.89 42.91Q253.42 42.91 260.55 50.47Q267.69 58.04 267.69 68.05Q267.69 78.06 260.60 85.57Q253.51 93.09 245.37 93.09Q237.23 93.09 233.78 88.50L233.78 88.50Q233.02 93.19 225.55 93.19L225.55 93.19Q219.51 93.19 218.17 90.60L218.17 90.60Q217.50 89.17 217.36 88.06Q217.22 86.96 217.22 84.76L217.22 84.76L217.22 27.58Q217.22 25.38 217.36 24.28Q217.50 23.18 218.17 21.84L218.17 21.84Q219.51 19.25 225.64 19.25L225.64 19.25Q231.68 19.25 232.92 21.84L232.92 21.84Q233.69 23.27 233.83 24.37Q233.98 25.48 233.98 27.68L233.98 27.68L233.98 47.60Q237.81 42.91 244.89 42.91ZM236.56 73.84L236.56 73.84Q238.86 76.43 242.40 76.43Q245.95 76.43 248.44 73.84Q250.93 71.26 250.93 68.10Q250.93 64.93 248.63 62.30Q246.33 59.67 242.50 59.67Q238.67 59.67 236.42 62.35Q234.17 65.03 234.17 68.14Q234.17 71.26 236.56 73.84ZM353.41 25.76L353.41 25.76Q354.17 27.20 354.32 28.35Q354.46 29.50 354.46 31.70L354.46 31.70L354.46 84.86Q354.46 91.46 350.82 92.61L350.82 92.61Q349.00 93.19 346.22 93.19Q343.45 93.19 341.82 92.71Q340.19 92.23 339.33 91.56Q338.47 90.89 337.99 89.64L337.99 89.64Q337.51 88.02 337.51 84.66L337.51 84.66L337.51 52.58Q335.11 55.55 330.52 62.01Q325.92 68.48 324.67 70.11Q323.43 71.73 322.95 72.36Q322.47 72.98 320.60 74.08Q318.74 75.18 316.58 75.18Q314.43 75.18 312.65 74.18Q310.88 73.17 310.12 72.21L310.12 72.21L309.35 71.16Q307.43 68.77 301.78 60.96Q296.13 53.15 295.65 52.58L295.65 52.58L295.65 84.86Q295.65 87.06 295.51 88.16Q295.37 89.26 294.60 90.60L294.60 90.60Q293.16 93.19 287.13 93.19L287.13 93.19Q281.29 93.19 279.85 90.60L279.85 90.60Q279.09 89.26 278.94 88.11Q278.80 86.96 278.80 84.66L278.80 84.66L278.80 31.51Q278.80 29.31 278.94 28.21Q279.09 27.10 279.85 25.67L279.85 25.67Q281.29 23.18 287.32 23.18L287.32 23.18Q289.91 23.18 291.78 23.80Q293.64 24.42 294.22 25.09L294.22 25.09L294.79 25.67L316.53 54.21Q332.81 32.66 338.27 25.76L338.27 25.76Q339.90 23.18 345.98 23.18Q352.07 23.18 353.41 25.76ZM399.76 48.17L399.76 48.17Q400.34 42.81 407.33 42.81L407.33 42.81Q411.06 42.81 412.88 43.39Q414.70 43.96 415.42 45.40Q416.14 46.83 416.28 47.93Q416.43 49.04 416.43 51.24L416.43 51.24L416.43 84.76Q416.43 86.96 416.28 88.06Q416.14 89.17 415.47 90.60L415.47 90.60Q414.13 93.09 408.91 93.09Q403.69 93.09 401.92 91.80Q400.14 90.51 399.86 88.02L399.86 88.02Q396.31 93.09 388.03 93.09Q379.74 93.09 372.66 85.53Q365.57 77.96 365.57 67.95Q365.57 57.94 372.70 50.43Q379.84 42.91 388.36 42.91L388.36 42.91Q391.62 42.91 394.30 44.06Q396.98 45.21 398.04 46.21Q399.09 47.22 399.76 48.17ZM382.33 68.10L382.33 68.10Q382.33 71.26 384.82 73.79Q387.31 76.33 390.85 76.33Q394.40 76.33 396.74 73.75Q399.09 71.16 399.09 68.05Q399.09 64.93 396.84 62.25Q394.59 59.57 390.81 59.57Q387.02 59.57 384.68 62.25Q382.33 64.93 382.33 68.10ZM428.97 84.86L428.97 27.49Q428.97 25.00 429.31 23.42Q429.64 21.84 430.55 20.83Q431.46 19.83 433.14 19.44Q434.81 19.06 437.40 19.06L437.40 19.06Q439.03 19.06 440.51 19.25Q442.00 19.44 443.10 20.11Q444.20 20.78 444.87 21.88Q445.54 22.99 445.64 24.90L445.64 24.90Q445.73 25.38 445.73 26.00Q445.73 26.63 445.73 27.58L445.73 27.58L445.73 57.94Q446.59 57.18 447.89 55.98Q449.18 54.78 451.00 53.06L451.00 53.06Q454.45 49.61 456.17 48.17L456.17 48.17L457.32 47.41Q458.95 46.16 460.24 45.49Q461.53 44.82 462.88 44.82L462.88 44.82Q465.46 44.82 468.62 48.65L468.62 48.65Q470.15 50.57 470.92 52.05Q471.69 53.54 471.69 54.78Q471.69 56.03 470.78 57.27Q469.87 58.52 468.14 59.95L468.14 59.95L458.66 68.00L471.40 78.53Q473.79 80.55 474.42 81.60Q475.04 82.65 475.04 83.61L475.04 83.61Q475.04 84.86 474.18 86.58Q473.32 88.30 471.97 89.93Q470.63 91.56 469.15 92.71Q467.66 93.86 466.32 93.86L466.32 93.86Q464.31 93.86 460.48 91.08L460.48 91.08L459.52 90.41Q458.47 89.45 456.75 87.87Q455.02 86.29 452.72 83.99L452.72 83.99Q450.43 81.79 448.70 80.16Q446.98 78.53 445.73 77.58L445.73 77.58L445.73 84.95Q445.73 87.35 445.40 88.97Q445.06 90.60 444.10 91.56Q443.15 92.52 441.52 92.90Q439.89 93.28 437.30 93.28L437.30 93.28Q434.72 93.28 433.09 92.85Q431.46 92.42 430.55 91.46Q429.64 90.51 429.31 88.88Q428.97 87.25 428.97 84.86L428.97 84.86ZM530.97 61.97L530.97 61.97Q530.97 67.90 528.05 70.73Q525.13 73.55 521.59 73.55L521.59 73.55L498.89 73.55Q498.89 76.24 502.05 78.06Q505.21 79.88 508.37 79.88L508.37 79.88Q513.92 79.88 517.08 78.73L517.08 78.73L518.14 78.34Q520.44 77.29 521.97 77.29L521.97 77.29Q525.03 77.29 527.24 81.60L527.24 81.60Q528.48 84.19 528.48 86.01L528.48 86.01Q528.48 94.53 508.08 94.53L508.08 94.53Q500.99 94.53 495.49 92.09Q489.98 89.64 486.92 85.62L486.92 85.62Q480.88 77.86 480.88 68.29L480.88 68.29Q480.88 56.22 488.69 48.99Q496.49 41.76 508.18 41.76L508.18 41.76Q521.49 41.76 527.71 51.14L527.71 51.14Q530.97 56.12 530.97 61.97ZM498.70 64.84L510.76 64.84Q514.40 64.84 514.40 61.77L514.40 61.77Q514.40 59.57 512.73 58.23Q511.05 56.89 507.94 56.89Q504.82 56.89 501.76 59.43Q498.70 61.97 498.70 64.84L498.70 64.84ZM576.37 43.39L576.37 43.39Q578.19 43.96 579.38 45.35Q580.58 46.74 580.58 49.80Q580.58 52.87 578.76 56.51Q576.94 60.15 573.49 60.15L573.49 60.15Q571.77 60.15 570.19 59.38Q568.61 58.61 566.02 58.61Q563.44 58.61 561.19 60.43Q558.94 62.25 558.94 64.84L558.94 64.84L558.94 84.95Q558.94 87.15 558.79 88.26Q558.65 89.36 557.88 90.79L557.88 90.79Q556.45 93.28 550.41 93.28L550.41 93.28Q545.82 93.28 543.80 91.66L543.80 91.66Q542.27 90.31 542.08 87.54L542.08 87.54Q542.08 86.58 542.08 84.76L542.08 84.76L542.08 51.14Q542.08 48.94 542.22 47.84Q542.37 46.74 543.04 45.40L543.04 45.40Q544.38 42.81 550.51 42.81L550.51 42.81Q556.26 42.81 557.69 45.01L557.69 45.01Q558.75 46.55 558.75 48.17L558.75 48.17Q559.22 47.50 560.13 46.55Q561.04 45.59 564.01 43.96Q566.98 42.33 569.23 42.33Q571.48 42.33 573.02 42.57Q574.55 42.81 576.37 43.39Z"></path>
          </g>
    <g fill="#231f20" id="tagline_group" transform="translate(1537.1698035, 1167.0888427999998)" opacity="1.0">
              <path d="M9.09 44.01L14.55 44.01L20.91 27.28L27.19 44.01L32.65 44.01L41.60 19.73L36.56 19.73L29.96 37.74L23.42 19.73L18.64 19.73L11.96 37.65L5.55 19.73L0.18 19.73ZM74.75 32.01C74.75 24.42 69.56 19.46 62.47 19.46C55.24 19.46 49.92 24.64 49.92 31.87C49.92 39.10 55.20 44.33 63.34 44.33C67.52 44.33 70.93 42.97 73.11 40.37L70.06 36.87C68.34 38.65 66.20 39.51 63.47 39.51C59.24 39.51 56.29 37.24 55.61 33.69L74.66 33.69C74.70 33.15 74.75 32.46 74.75 32.01ZM62.47 24.01C66.20 24.01 68.88 26.42 69.34 29.92L55.56 29.92C56.11 26.37 58.79 24.01 62.47 24.01ZM100.07 19.46C96.98 19.46 94.25 20.51 92.30 22.69L92.30 10.28L86.61 10.28L86.61 44.01L92.03 44.01L92.03 40.87C93.93 43.19 96.75 44.33 100.07 44.33C107.17 44.33 112.39 39.42 112.39 31.87C112.39 24.32 107.17 19.46 100.07 19.46ZM99.44 39.47C95.34 39.47 92.21 36.51 92.21 31.87C92.21 27.23 95.34 24.28 99.44 24.28C103.53 24.28 106.62 27.23 106.62 31.87C106.62 36.51 103.53 39.47 99.44 39.47ZM131.72 44.33C138.54 44.33 142.72 41.37 142.72 36.83C142.72 27.33 127.72 31.69 127.72 26.78C127.72 25.19 129.35 24.05 132.81 24.05C135.13 24.05 137.45 24.51 139.77 25.87L141.95 21.55C139.77 20.23 136.08 19.46 132.85 19.46C126.31 19.46 122.17 22.46 122.17 27.05C122.17 36.74 137.17 32.37 137.17 37.01C137.17 38.69 135.67 39.69 132.08 39.69C129.04 39.69 125.76 38.69 123.62 37.28L121.44 41.60C123.62 43.15 127.67 44.33 131.72 44.33ZM156.91 15.73C159.04 15.73 160.54 14.19 160.54 12.19C160.54 10.32 159.00 8.91 156.91 8.91C154.82 8.91 153.27 10.41 153.27 12.32C153.27 14.23 154.82 15.73 156.91 15.73ZM154.04 44.01L159.73 44.01L159.73 19.73L154.04 19.73ZM174.37 24.46L174.37 36.15C174.37 41.51 177.41 44.33 182.73 44.33C184.78 44.33 186.82 43.78 188.19 42.69L186.60 38.65C185.73 39.33 184.60 39.65 183.41 39.65C181.23 39.65 180.05 38.37 180.05 36.01L180.05 24.46L186.55 24.46L186.55 19.91L180.05 19.91L180.05 14.37L174.37 14.37L174.37 19.91L170.36 19.91L170.36 24.46ZM222.11 32.01C222.11 24.42 216.92 19.46 209.83 19.46C202.60 19.46 197.28 24.64 197.28 31.87C197.28 39.10 202.56 44.33 210.69 44.33C214.88 44.33 218.29 42.97 220.47 40.37L217.42 36.87C215.70 38.65 213.56 39.51 210.83 39.51C206.60 39.51 203.65 37.24 202.96 33.69L222.02 33.69C222.06 33.15 222.11 32.46 222.11 32.01ZM209.83 24.01C213.56 24.01 216.24 26.42 216.70 29.92L202.92 29.92C203.46 26.37 206.15 24.01 209.83 24.01ZM241.48 44.33C248.30 44.33 252.48 41.37 252.48 36.83C252.48 27.33 237.47 31.69 237.47 26.78C237.47 25.19 239.11 24.05 242.57 24.05C244.89 24.05 247.20 24.51 249.52 25.87L251.71 21.55C249.52 20.23 245.84 19.46 242.61 19.46C236.06 19.46 231.93 22.46 231.93 27.05C231.93 36.74 246.93 32.37 246.93 37.01C246.93 38.69 245.43 39.69 241.84 39.69C238.79 39.69 235.52 38.69 233.38 37.28L231.20 41.60C233.38 43.15 237.43 44.33 241.48 44.33Z"></path>
          </g>
  </svg>