<svg width="48" height="48" viewBox="0 0 48 48" ria-hidden="true" focusable="false" role="img" aria-label="Я в Github" xmlns:xlink="http://www.w3.org/1999/xlink" xmlns="http://www.w3.org/2000/svg"><defs><clipPath id="b"><use xlink:href="#a"/></clipPath><path d="M0 0h48v48H0V0Z" id="a"/></defs><path d="M0 0h48v48H0V0Z" fill="none"/><g clip-path="url(#b)"><path d="M44.8 12.5A23.9 23.9 0 0 0 12 3.8a23.9 23.9 0 0 0-7.4 34.9c3 4.2 7 7 11.8 8.7.6 0 1 0 1.3-.3.2-.2.4-.5.4-.9a695.7 695.7 0 0 0 0-4.5l-.8.2h-1.7l-2.2-.1c-.7-.2-1.4-.5-2-1A4 4 0 0 1 9.8 39l-.3-.7c-.2-.5-.5-1-1-1.6-.4-.6-.9-1-1.3-1.2l-.2-.2a2.3 2.3 0 0 1-.7-.8l.1-.3a2 2 0 0 1 1-.2l.6.1c.4.1.9.4 1.5.8a5 5 0 0 1 1.5 1.6c.5.9 1 1.5 1.8 2 .6.4 1.3.6 2 .6l1.8-.1 1.4-.5a5 5 0 0 1 1.5-3.2c-1.2-.1-2.2-.3-3.2-.6-1-.2-2-.6-3-1.2a8.4 8.4 0 0 1-4-5.4c-.5-1.3-.7-2.9-.7-4.7 0-2.5.8-4.6 2.5-6.4-.8-1.9-.7-4 .2-6.4.6-.2 1.5 0 2.7.4a18.8 18.8 0 0 1 3.9 2 22.2 22.2 0 0 1 12 0l1.2-.7c.8-.5 1.8-1 2.9-1.3 1-.4 2-.6 2.5-.4 1 2.4 1 4.5.2 6.4 1.7 1.8 2.5 4 2.5 6.4 0 1.8-.2 3.4-.6 4.7-.5 1.4-1 2.5-1.7 3.3-.7.8-1.5 1.5-2.5 2.1-1 .6-2 1-3 1.2-.9.3-2 .5-3.2.6 1.1 1 1.7 2.4 1.7 4.4v6.6c0 .4.1.7.4 1 .2.2.6.3 1.2.2 4.8-1.6 8.8-4.5 11.8-8.7 3-4.2 4.6-8.9 4.6-14.1 0-4.4-1-8.4-3.2-12Z" fill="currentColor"/></g></svg>
