<svg width="104" height="65" viewBox="0 0 104 65" fill="none" xmlns="http://www.w3.org/2000/svg">
<path d="M51.3659 64.8128C51.0138 64.8128 50.6851 64.7171 50.3799 64.5496L47.2576 62.6595C46.788 62.3963 47.0228 62.3006 47.1637 62.2528C47.7975 62.0375 47.9149 61.9896 48.5722 61.6068C48.6427 61.559 48.7366 61.5829 48.807 61.6307L51.2016 63.0902C51.2955 63.138 51.4129 63.138 51.4833 63.0902L60.8503 57.5635C60.9442 57.5157 60.9912 57.42 60.9912 57.3003V46.271C60.9912 46.1513 60.9442 46.0556 60.8503 46.0078L51.4833 40.5051C51.3894 40.4572 51.272 40.4572 51.2016 40.5051L41.8345 46.0078C41.7406 46.0556 41.6937 46.1753 41.6937 46.271V57.3003C41.6937 57.396 41.7406 57.5157 41.8345 57.5635L44.3934 59.0708C45.7785 59.7885 46.6472 58.9512 46.6472 58.1138V47.228C46.6472 47.0844 46.7646 46.9409 46.9289 46.9409H48.1262C48.267 46.9409 48.4079 47.0605 48.4079 47.228V58.1138C48.4079 60.0038 47.3984 61.1044 45.6377 61.1044C45.0977 61.1044 44.6752 61.1044 43.4779 60.5063L41.0129 59.0708C40.4025 58.7119 40.0269 58.042 40.0269 57.3243V46.2949C40.0269 45.5771 40.4025 44.9072 41.0129 44.5484L50.3799 39.0217C50.9668 38.6868 51.765 38.6868 52.3519 39.0217L61.719 44.5484C62.3293 44.9072 62.705 45.5771 62.705 46.2949V57.3243C62.705 58.042 62.3293 58.7119 61.719 59.0708L52.3519 64.5974C52.0467 64.741 51.6946 64.8128 51.3659 64.8128ZM54.2535 57.2286C50.1451 57.2286 49.3 55.3146 49.3 53.6877C49.3 53.5441 49.4174 53.4006 49.5817 53.4006H50.8025C50.9433 53.4006 51.0607 53.4963 51.0607 53.6398C51.2485 54.9078 51.7885 55.5299 54.277 55.5299C56.249 55.5299 57.0941 55.0753 57.0941 53.9987C57.0941 53.3767 56.8594 52.9221 53.784 52.6111C51.225 52.3479 49.6287 51.7737 49.6287 49.6922C49.6287 47.7543 51.225 46.6059 53.9013 46.6059C56.9063 46.6059 58.3853 47.6586 58.5731 49.9554C58.5731 50.0272 58.5497 50.0989 58.5027 50.1707C58.4557 50.2186 58.3853 50.2664 58.3149 50.2664H57.0941C56.9767 50.2664 56.8594 50.1707 56.8359 50.0511C56.5542 48.7352 55.8264 48.3046 53.9013 48.3046C51.7415 48.3046 51.4833 49.0702 51.4833 49.6444C51.4833 50.3382 51.7885 50.5535 54.6995 50.9363C57.5871 51.3191 58.9487 51.8694 58.9487 53.9269C58.9253 56.0323 57.235 57.2286 54.2535 57.2286Z" fill="#539E43"/>
<path d="M22.3025 21.676C22.3025 21.2454 22.0677 20.8386 21.6921 20.6233L11.7381 14.7856C11.5738 14.6899 11.386 14.6421 11.1982 14.6182H11.1043C10.9165 14.6182 10.7287 14.6899 10.5643 14.7856L0.610384 20.6233C0.234763 20.8386 0 21.2454 0 21.676L0.0234763 37.3707C0.0234763 37.5861 0.140858 37.8014 0.328668 37.8971C0.516479 38.0167 0.751242 38.0167 0.915576 37.8971L6.8316 34.4519C7.20722 34.2366 7.44199 33.8299 7.44199 33.3992V26.0543C7.44199 25.6236 7.67675 25.2169 8.05237 25.0016L10.5643 23.5182C10.7521 23.3986 10.9634 23.3507 11.1747 23.3507C11.386 23.3507 11.5973 23.3986 11.7616 23.5182L14.2736 25.0016C14.6492 25.2169 14.884 25.6236 14.884 26.0543V33.3992C14.884 33.8299 15.1187 34.2366 15.4944 34.4519L21.4104 37.8971C21.5982 38.0167 21.833 38.0167 22.0208 37.8971C22.2086 37.8014 22.326 37.5861 22.326 37.3707L22.3025 21.676Z" fill="#333333"/>
<path d="M70.1472 0.0717747C69.9594 -0.0239249 69.7246 -0.0239249 69.5603 0.0717747C69.3724 0.191399 69.2551 0.382798 69.2551 0.598122V16.1493C69.2551 16.2929 69.1846 16.4364 69.0438 16.5321C68.9029 16.6039 68.7621 16.6039 68.6212 16.5321L66.1327 15.0727C65.7571 14.8574 65.311 14.8574 64.9354 15.0727L54.9815 20.9343C54.6059 21.1496 54.3711 21.5563 54.3711 21.987V33.6862C54.3711 34.1169 54.6059 34.5236 54.9815 34.7389L64.9354 40.6005C65.311 40.8159 65.7571 40.8159 66.1327 40.6005L76.0867 34.7389C76.4623 34.5236 76.697 34.1169 76.697 33.6862V4.5218C76.697 4.06723 76.4623 3.66051 76.0867 3.44518L70.1472 0.0717747ZM69.2316 29.8343C69.2316 29.954 69.1846 30.0497 69.0907 30.0975L65.6867 32.1072C65.5928 32.1551 65.4754 32.1551 65.3815 32.1072L61.9774 30.0975C61.8835 30.0497 61.8366 29.93 61.8366 29.8343V25.815C61.8366 25.6953 61.8835 25.5996 61.9774 25.5518L65.3815 23.5421C65.4754 23.4942 65.5928 23.4942 65.6867 23.5421L69.0907 25.5518C69.1846 25.5996 69.2316 25.7193 69.2316 25.815V29.8343Z" fill="#333333"/>
<path d="M103.272 25.7192C103.648 25.5039 103.859 25.0972 103.859 24.6665V21.8194C103.859 21.3888 103.624 20.9821 103.272 20.7667L93.3886 14.9291C93.013 14.7137 92.5669 14.7137 92.1913 14.9291L82.2373 20.7907C81.8617 21.006 81.627 21.4127 81.627 21.8434V33.5426C81.627 33.9733 81.8617 34.38 82.2373 34.5953L92.1209 40.3373C92.4965 40.5526 92.9425 40.5526 93.2947 40.3373L99.2811 36.94C99.4689 36.8443 99.5863 36.629 99.5863 36.4136C99.5863 36.1983 99.4689 35.983 99.2811 35.8873L89.2802 30.0257C89.0924 29.9061 88.975 29.7147 88.975 29.4993V25.8388C88.975 25.6235 89.0924 25.4082 89.2802 25.3125L92.4026 23.4942C92.5904 23.3746 92.8251 23.3746 93.013 23.4942L96.1353 25.3125C96.3231 25.4321 96.4405 25.6235 96.4405 25.8388V28.7098C96.4405 28.9251 96.5579 29.1405 96.7457 29.2362C96.9335 29.3558 97.1683 29.3558 97.3561 29.2362L103.272 25.7192Z" fill="#333333"/>
<path d="M92.6371 25.1687C92.7076 25.1209 92.8015 25.1209 92.8719 25.1687L94.7735 26.2932C94.8439 26.341 94.8909 26.4128 94.8909 26.5085V28.7574C94.8909 28.8531 94.8439 28.9249 94.7735 28.9728L92.8719 30.0972C92.8015 30.1451 92.7076 30.1451 92.6371 30.0972L90.7355 28.9728C90.6651 28.9249 90.6182 28.8531 90.6182 28.7574V26.5085C90.6182 26.4128 90.6651 26.341 90.7355 26.2932L92.6371 25.1687Z" fill="#539E43"/>
<mask id="mask0_20_251" style="mask-type:alpha" maskUnits="userSpaceOnUse" x="27" y="14" width="23" height="27">
<path d="M38.947 14.9769C38.5714 14.7616 38.1253 14.7616 37.7497 14.9769L27.8662 20.7907C27.4906 21.006 27.2793 21.4127 27.2793 21.8434V33.4948C27.2793 33.9254 27.5141 34.3322 27.8662 34.5475L37.7497 40.3612C38.1253 40.5766 38.5714 40.5766 38.947 40.3612L48.8305 34.5475C49.2062 34.3322 49.4174 33.9254 49.4174 33.4948V21.8434C49.4174 21.4127 49.1827 21.006 48.8305 20.7907L38.947 14.9769Z" fill="white"/>
</mask>
<g mask="url(#mask0_20_251)">
<path d="M38.947 14.9769C38.5714 14.7616 38.1253 14.7616 37.7497 14.9769L27.8662 20.7907C27.4906 21.006 27.2793 21.4127 27.2793 21.8434V33.4948C27.2793 33.9254 27.5141 34.3322 27.8662 34.5475L37.7497 40.3612C38.1253 40.5766 38.5714 40.5766 38.947 40.3612L48.8305 34.5475C49.2062 34.3322 49.4174 33.9254 49.4174 33.4948V21.8434C49.4174 21.4127 49.1827 21.006 48.8305 20.7907L38.947 14.9769Z" fill="url(#paint0_linear_20_251)"/>
<path d="M48.8542 20.7898L38.9237 14.9761C38.8298 14.9282 38.7124 14.8804 38.6185 14.8564L27.4907 34.2835C27.5846 34.4031 27.702 34.4988 27.8194 34.5706L37.7499 40.3843C38.0316 40.5518 38.3602 40.5996 38.6654 40.5039L49.1124 21.0291C49.042 20.9334 48.9481 20.8616 48.8542 20.7898Z" fill="url(#paint1_linear_20_251)"/>
<path fill-rule="evenodd" clip-rule="evenodd" d="M48.8775 34.5474C49.1592 34.3799 49.3705 34.0928 49.4644 33.7818L38.5714 14.8333C38.2897 14.7854 37.9845 14.8094 37.7263 14.9768L27.8662 20.7667L38.501 40.5286C38.6418 40.5047 38.8062 40.4568 38.947 40.3851L48.8775 34.5474Z" fill="url(#paint2_linear_20_251)"/>
<path fill-rule="evenodd" clip-rule="evenodd" d="M48.8775 34.5473L38.9705 40.3611C38.8296 40.4328 38.6887 40.4807 38.5244 40.5046L38.7122 40.8635L49.6991 34.3799V34.2363L49.4174 33.7578C49.3705 34.0928 49.1592 34.3799 48.8775 34.5473Z" fill="url(#paint3_linear_20_251)"/>
<path fill-rule="evenodd" clip-rule="evenodd" d="M48.8775 34.5473L38.9705 40.3611C38.8296 40.4328 38.6887 40.4807 38.5244 40.5046L38.7122 40.8635L49.6991 34.3799V34.2363L49.4174 33.7578C49.3705 34.0928 49.1592 34.3799 48.8775 34.5473Z" fill="url(#paint4_linear_20_251)"/>
</g>
<defs>
<linearGradient id="paint0_linear_20_251" x1="42.375" y1="19.3108" x2="31.247" y2="36.4675" gradientUnits="userSpaceOnUse">
<stop stop-color="#41873F"/>
<stop offset="0.3288" stop-color="#418B3D"/>
<stop offset="0.6352" stop-color="#419637"/>
<stop offset="0.9319" stop-color="#3FA92D"/>
<stop offset="1" stop-color="#3FAE2A"/>
</linearGradient>
<linearGradient id="paint1_linear_20_251" x1="36.8478" y1="29.0328" x2="64.2108" y2="14.4453" gradientUnits="userSpaceOnUse">
<stop offset="0.1376" stop-color="#41873F"/>
<stop offset="0.4032" stop-color="#54A044"/>
<stop offset="0.7136" stop-color="#66B848"/>
<stop offset="0.9081" stop-color="#6CC04A"/>
</linearGradient>
<linearGradient id="paint2_linear_20_251" x1="26.9183" y1="27.6694" x2="49.7882" y2="27.6694" gradientUnits="userSpaceOnUse">
<stop offset="0.0919165" stop-color="#6CC04A"/>
<stop offset="0.2864" stop-color="#66B848"/>
<stop offset="0.5968" stop-color="#54A044"/>
<stop offset="0.8624" stop-color="#41873F"/>
</linearGradient>
<linearGradient id="paint3_linear_20_251" x1="26.9183" y1="37.3302" x2="49.7882" y2="37.3302" gradientUnits="userSpaceOnUse">
<stop offset="0.0919165" stop-color="#6CC04A"/>
<stop offset="0.2864" stop-color="#66B848"/>
<stop offset="0.5968" stop-color="#54A044"/>
<stop offset="0.8624" stop-color="#41873F"/>
</linearGradient>
<linearGradient id="paint4_linear_20_251" x1="53.1201" y1="18.7599" x2="47.1109" y2="49.6577" gradientUnits="userSpaceOnUse">
<stop stop-color="#41873F"/>
<stop offset="0.3288" stop-color="#418B3D"/>
<stop offset="0.6352" stop-color="#419637"/>
<stop offset="0.9319" stop-color="#3FA92D"/>
<stop offset="1" stop-color="#3FAE2A"/>
</linearGradient>
</defs>
</svg>
