<svg width="48" height="48" viewBox="0 0 48 48" ria-hidden="true" focusable="false" role="img" aria-label="Я в Telegram" xmlns:xlink="http://www.w3.org/1999/xlink" xmlns="http://www.w3.org/2000/svg">
  <defs><clipPath id="b"><use xlink:href="#a"/></clipPath><path d="M0 0h48v48H0V0Z" id="a"/></defs>
  <path d="M0 0h48v48H0V0Z" fill="none"/>
  <g clip-path="url(#b)"><
    path d="M24 .8a23.2 23.2 0 1 0 0 46.4A23.2 23.2 0 0 0 24 .7Zm11.4 15.9-3.8 18c-.3 1.2-1 1.5-2.1 1l-5.8-4.3-2.8 2.7c-.3.3-.6.5-1.2.5l.4-5.9L31 19c.5-.4-.1-.7-.7-.3l-13.3 8.4-5.8-1.8c-1.2-.4-1.2-1.2.3-1.8l22.4-8.7c1-.3 2 .3 1.6 1.9Z" fill-rule="evenodd"/></g>
</svg>
